<?xml version="1.0" encoding="utf-8"?>
<!-- Generator: Adobe Illustrator 27.2.0, SVG Export Plug-In . SVG Version: 6.00 Build 0)  -->
<svg version="1.1" xmlns="http://www.w3.org/2000/svg" xmlns:xlink="http://www.w3.org/1999/xlink" x="0px" y="0px"
	 viewBox="0 0 562.02 324.24" style="enable-background:new 0 0 562.02 324.24;" xml:space="preserve">
<style type="text/css">
	.st0{fill:#FFD200;}
	.st1{fill:#FFFFFF;}
	.st2{fill:#9FA1A4;}
</style>
<g id="Icon">
	<g>
		<path class="st0" d="M162.14,271.1c-60.08,0-108.97-48.89-108.97-108.97c0-60.08,48.89-108.97,108.97-108.97
			c60.09,0,108.97,48.88,108.97,108.97C271.11,222.21,222.22,271.1,162.14,271.1"/>
		<path d="M162.14,40.9C95.18,40.9,40.9,95.18,40.9,162.13c0,66.96,54.28,121.23,121.23,121.23c66.96,0,121.23-54.28,121.23-121.23
			C283.37,95.18,229.09,40.9,162.14,40.9 M162.14,271.1c-60.08,0-108.97-48.89-108.97-108.97c0-60.08,48.89-108.97,108.97-108.97
			c60.09,0,108.97,48.88,108.97,108.97C271.11,222.21,222.22,271.1,162.14,271.1"/>
		<path d="M239.06,179.04c5.21-7.96,5.82-23.41,4.63-28.56c-0.22-0.05-15.35-8.31-49.98-19.89c3.64-1.65,6.77-4.92,6.85-5.08
			c-0.46-1.09-10.78-7.97-15.77-9.4c7.61-4.89,20.84-19.13,23.45-22.04c-8.09-3.67-18.58-4.7-21.44-4.8
			c6.1-4.8,17.72-12.53,22.5-13.84c-0.15-0.16-6.86-3.48-17.58-3.73c-16.26-0.39-24.9,3.22-36.84,9.33
			c-0.07,0.02,4.55-12.01,5.28-14.21c-4.1,2.06-8.73,4.71-12.35,7.54c-7.51,5.8-14.49,10.62-20.15,18
			c-4.03,5.11-3.08,11.27-2.36,12.99c1.05,2.93,2.42,5.93,3.03,8.96c1.16,5.75,0.48,5.93,0.09,6c-4.32,0.8-7.93,3.78-10.99,7.55
			c-3.58,4.63-5.57,9.8-7.13,15.4c-1.25-0.46-6.33-2.49-14.88-2.49c-15.6,0-21.35,10.66-22.39,13.5
			c-4.4,12.27,2.21,28.58,2.21,28.58c0-0.01,0.67,11.87,3.23,18.97c0.89,2.69,5.54,3.2,8.52,3.39c7.74,0.34,7.11,10.93,5.05,16.59
			c-0.02,0.07,10.44-1.79,11.37-12.15c0.01-0.07,4.67,2.94,6.19,5.64c0.04,0,4.8-5.3,2.8-12.3c7.65,9.19,9.19,26,9.35,25.96
			c1.94-1.47,5.15-5.42,5.15-5.42s-1.27,9.04-3.36,9.38c-2.09,0.35-4.49,0.75-4.49,0.75l-6.99,8.8h20.37
			c0.2-4.9,3.15-15.57,4.47-18.84c1.63,2.02,5.37,4.88,5.46,4.99c0.18-0.26-0.23-5.8,5.33-18.68c2.47,3.91,4.29,6.35,4.41,6.33
			c14.98-3.08,48.46-24.05,48.81-24.35c0.79,1.03,9.38,14.01,21.4,18.29c-2.75,8.57-17.37,22.43-18.86,22.75
			c-0.31,0.07-4.23,0.78-4.23,0.78l-6.99,8.74h21.49c1.59-10.31,19.01-22.66,23.59-31.8c1.04-1.61-0.04-3.18-0.18-3.51
			c-2.83-3.85-3.54-5.96-3.22-10.99C233.73,189.73,236.46,184.32,239.06,179.04"/>
		<path class="st1" d="M88.27,176.21c-2.74,0.1-5.31,1.52-6.49,4.01v1.54l7.38-2.56l1.25-2.56
			C89.81,176.25,89.03,176.2,88.27,176.21"/>
		<path class="st2" d="M151.17,202.46c2.24,3.55,3.9,5.77,4,5.74c13.6-2.79,38.04-18.11,38.36-18.39L151.17,202.46z"/>
		<path class="st2" d="M168.18,117.55l-8.86,5.85c0,0,13.03-0.55,28.4,3.19C187.72,126.59,180.25,119.71,168.18,117.55"/>
		<path class="st1" d="M193.75,97.63c-21.89,1.04-31.12,6.97-31.12,6.97l6.59-7.96c4.15-5.44,11-12.38,21.64-19.18
			c-39.96,16.04-48.19,27.62-48.19,27.62l2.15-9.76c0.24-1.76,2.65-10.25,3.05-12.32c-13.14,10.72-16.74,17.59-15.19,22.82
			c1.04,3.53,4.85,11.44,4.98,16.87c0.15,6.24-2.04,11.78-3.85,18.93c0,0,23.1,7.5,35.5,4.51c0,0-5.44-4.31-5.55-6.74
			c15.79-4.44,23.78-12.91,23.94-12.8c0,0,0.01,0,0.01,0c-15.37-3.74-28.39-3.19-28.39-3.19l8.86-5.85l0,0c0,0-0.01,0-0.01,0
			C176.83,110.96,186.82,106.44,193.75,97.63"/>
		<path class="st2" d="M144.82,95.31c14.94-9.29,27.64-13.78,35.89-15.93c6.42-1.67,10.15-1.93,10.15-1.93
			c-39.96,16.04-48.19,27.62-48.19,27.62L144.82,95.31z"/>
		<path class="st2" d="M169.25,96.62c0,0,13.22-1.43,24.5,1.02c-21.89,1.04-31.12,6.97-31.12,6.97L169.25,96.62"/>
		<path class="st1" d="M92.33,167.11c4.24-1.75,7.93-8.3,9.16-14.51c-0.07-4.29-0.76-7.6-0.76-7.6c0.06,0.7-2.07,17.08-14.27,17.56
			c-2.85,0.11-3.95,0.64-4.36,3.99c-0.05,0.41-0.04,0.84,0.02,1.25v0.01v-0.01C85.07,168.44,88.38,168.75,92.33,167.11"/>
		<path class="st2" d="M85.2,171.68c0,0,10.23,1.41,13.62-5.14c2.92-5.31,2.67-13.28,2.66-13.94v-0.01
			c-1.23,6.22-4.92,12.76-9.16,14.51c-3.96,1.64-7.26,1.33-10.21,0.68v0.01v0c0,0,0,0.01,0,0.01
			C82.16,168.04,82.54,170.96,85.2,171.68"/>
	</g>
</g>
<g id="Trademark">
	<path class="st2" d="M516.11,253.75h-1.14v3.21h-0.92v-3.21h-1.14v-0.71h3.2V253.75z M518.89,255.61l0.98-2.58h1.29v3.92h-0.88
		v-2.87h-0.02l-1.05,2.87h-0.65l-1.05-2.87h-0.02v2.87h-0.88v-3.92h1.29L518.89,255.61z"/>
</g>
<g id="Tagline">
	<g>
		<polygon class="st2" points="325.99,253.08 328.46,253.08 330.5,264.22 330.54,264.22 332.22,253.08 335.03,253.08 331.95,270.56 
			329.43,270.56 327.25,259.02 327.21,259.02 325.17,270.56 322.65,270.56 319.34,253.08 322.15,253.08 323.99,264.22 
			324.03,264.22 		"/>
		<rect x="337.36" y="253.08" class="st2" width="3" height="17.48"/>
		<polygon class="st2" points="343.68,270.56 343.68,253.08 346.47,253.08 350.12,263.08 350.17,263.08 350.17,253.08 
			352.88,253.08 352.88,270.56 350.27,270.56 346.44,259.64 346.39,259.64 346.39,270.56 		"/>
		<path class="st2" d="M359.94,261.7h4.92v8.86h-1.45l-0.56-1.31c-0.9,1.07-1.62,1.55-3.03,1.55c-2.37,0-4.02-1.69-4.02-4.48v-9.01
			c0-2.47,1.45-4.48,4.41-4.48c3,0,4.5,2.18,4.5,4.79v1.11h-2.85c0-2.62-0.53-3.29-1.72-3.29c-0.73,0-1.33,0.43-1.33,1.91v8.98
			c0,1.11,0.36,1.84,1.41,1.84c1.21,0,1.65-0.68,1.65-2.42v-1.69h-1.92V261.7z"/>
		<path class="st2" d="M373.38,257.39c-0.12-1.5-0.92-1.93-1.6-1.93c-0.97,0-1.5,0.63-1.5,1.71c0,2.98,6.1,4.41,6.1,9.16
			c0,2.88-1.94,4.48-4.75,4.48c-2.79,0-4.38-2.22-4.5-4.84l2.85-0.41c0.12,1.77,0.83,2.64,1.8,2.64c1.04,0,1.74-0.55,1.74-1.6
			c0-3.46-6.1-4.38-6.1-9.39c0-2.79,1.7-4.36,4.65-4.36c2.45,0,3.9,1.77,4.17,4.24L373.38,257.39z"/>
		<rect x="378.47" y="267.71" class="st2" width="2.86" height="2.86"/>
		<path class="st2" d="M389.42,253.08h4.45c3.22,0,4.65,1.65,4.65,4.63c0,1.5-0.63,3.07-2.08,3.66c1.52,0.68,2.42,1.89,2.42,4.14
			c0,2.89-1.29,5.06-4.7,5.06h-4.74V253.08z M392.42,260.25h1.09c1.14,0,2.01-0.78,2.01-2.23c0-1.62-0.63-2.47-1.96-2.47h-1.14
			V260.25z M392.42,268.09h1.26c1.6,0,2.18-0.92,2.18-2.69c0-1.79-0.68-2.69-2.47-2.69h-0.97V268.09z"/>
		<polygon class="st2" points="401.53,270.56 401.53,253.08 409.57,253.08 409.57,255.7 404.54,255.7 404.54,260.2 408.41,260.2 
			408.41,262.82 404.54,262.82 404.54,267.95 409.91,267.95 409.91,270.56 		"/>
		<polygon class="st2" points="412.29,270.56 412.29,253.08 420.33,253.08 420.33,255.7 415.29,255.7 415.29,260.2 419.17,260.2 
			419.17,262.82 415.29,262.82 415.29,267.95 420.67,267.95 420.67,270.56 		"/>
		<path class="st2" d="M426.05,270.56h-3v-17.48h4.21c3.37,0,5.08,1.43,5.08,5.16c0,2.8-1.09,3.94-2.11,4.4l2.54,7.92h-3.05
			l-2.13-7.24c-0.39,0.05-1.02,0.07-1.55,0.07V270.56z M426.05,260.93h1.06c1.62,0,2.22-0.61,2.22-2.69c0-2.09-0.6-2.69-2.22-2.69
			h-1.06V260.93z"/>
		<rect x="434.96" y="267.71" class="st2" width="2.86" height="2.86"/>
		<path class="st2" d="M451.39,257.39c-0.12-1.5-0.92-1.93-1.6-1.93c-0.97,0-1.5,0.63-1.5,1.71c0,2.98,6.1,4.41,6.1,9.16
			c0,2.88-1.94,4.48-4.75,4.48c-2.78,0-4.38-2.22-4.5-4.84l2.86-0.41c0.12,1.77,0.82,2.64,1.79,2.64c1.04,0,1.74-0.55,1.74-1.6
			c0-3.46-6.1-4.38-6.1-9.39c0-2.79,1.69-4.36,4.65-4.36c2.45,0,3.9,1.77,4.16,4.24L451.39,257.39z"/>
		<path class="st2" d="M456.67,270.56v-17.48h4.31c3.71,0,5.42,1.43,5.42,5.16c0,3.72-1.72,5.15-5.42,5.15h-1.31v7.17H456.67z
			 M459.67,260.93h1.16c1.96,0,2.57-0.61,2.57-2.69c0-2.09-0.61-2.69-2.57-2.69h-1.16V260.93z"/>
		<path class="st2" d="M468.79,257.32c0-2.47,1.45-4.48,4.6-4.48c3.15,0,4.6,2.01,4.6,4.48v9.01c0,2.47-1.45,4.48-4.6,4.48
			c-3.15,0-4.6-2.01-4.6-4.48V257.32z M471.79,266.26c0,1.31,0.39,1.93,1.6,1.93c1.21,0,1.6-0.63,1.6-1.93v-8.86
			c0-1.31-0.39-1.93-1.6-1.93c-1.21,0-1.6,0.63-1.6,1.93V266.26z"/>
		<path class="st2" d="M483.9,270.56h-3v-17.48h4.21c3.36,0,5.08,1.43,5.08,5.16c0,2.8-1.09,3.94-2.11,4.4l2.54,7.92h-3.05
			l-2.13-7.24c-0.39,0.05-1.01,0.07-1.55,0.07V270.56z M483.9,260.93h1.07c1.62,0,2.23-0.61,2.23-2.69c0-2.09-0.61-2.69-2.23-2.69
			h-1.07V260.93z"/>
		<polygon class="st2" points="494.75,255.7 491.85,255.7 491.85,253.08 500.66,253.08 500.66,255.7 497.76,255.7 497.76,270.56 
			494.75,270.56 		"/>
		<path class="st2" d="M507.91,257.39c-0.12-1.5-0.92-1.93-1.6-1.93c-0.96,0-1.5,0.63-1.5,1.71c0,2.98,6.1,4.41,6.1,9.16
			c0,2.88-1.93,4.48-4.75,4.48c-2.78,0-4.38-2.22-4.5-4.84l2.86-0.41c0.12,1.77,0.83,2.64,1.79,2.64c1.04,0,1.74-0.55,1.74-1.6
			c0-3.46-6.1-4.38-6.1-9.39c0-2.79,1.69-4.36,4.65-4.36c2.44,0,3.9,1.77,4.16,4.24L507.91,257.39z"/>
		<rect x="513" y="267.71" class="st2" width="2.86" height="2.86"/>
	</g>
</g>
<g id="Registration_Mark">
	<path d="M519.49,240.26c0-1.36,1.08-2.25,2.3-2.25s2.3,0.88,2.3,2.25c0,1.37-1.08,2.25-2.3,2.25S519.49,241.62,519.49,240.26
		 M521.79,238.48c-0.96,0-1.71,0.74-1.71,1.77c0,1.03,0.75,1.77,1.71,1.77c0.94,0,1.71-0.74,1.71-1.77
		C523.5,239.22,522.73,238.48,521.79,238.48 M521.39,241.51h-0.5V239h0.95c0.63,0,0.97,0.2,0.97,0.75c0,0.46-0.28,0.64-0.61,0.67
		l0.61,1.1h-0.55l-0.56-1.07h-0.31V241.51z M521.39,240.05h0.43c0.36,0,0.49-0.12,0.49-0.35c0-0.24-0.15-0.31-0.51-0.31h-0.41
		V240.05z"/>
</g>
<g id="Type">
	<g>
		<g>
			<path d="M320.23,107.42h1.01c2.87,0,3.89-1.15,3.89-4.15c0-2.92-1.02-4.07-3.89-4.07h-1.01V107.42z M320.23,92.42h0.79
				c2.6,0,3.93-0.57,3.93-3.4c0-2.79-1.46-3.4-3.93-3.4h-0.79V92.42z M308.42,115.47V85.62l-4.69-8.03h20.34
				c2.96,0,6.28-0.04,8.84,1.55c2.83,1.72,3.76,4.9,3.76,8.04c0,4.33-1.72,7.29-5.97,8.49v0.09c4.86,0.62,6.54,4.51,6.54,8.93
				c0,3.09-0.71,6.54-3.18,8.53c-2.7,2.21-6.14,2.25-9.46,2.25H308.42z"/>
			<path d="M479.37,97.08v6.14c0,2.39,0.04,4.2-2.96,4.2h-1.15V77.59h-14.14l2.34,8.03v29.85h26.3V97.08H479.37z"/>
			<path d="M504.74,104.46c0,0.27-0.13,2.96,2.3,2.96c2.43,0,2.3-2.69,2.3-2.96V87.93c0-0.27,0.13-2.3-2.3-2.3
				c-2.43,0-2.3,2.65-2.3,2.92V104.46z M521.14,104.51c0,9.37-5.74,11.71-14.1,11.71c-8.35,0-14.1-2.34-14.1-11.71V88.55
				c0-9.37,5.75-11.71,14.1-11.71c8.36,0,14.1,2.34,14.1,11.71V104.51z"/>
			<path d="M429.36,90.63V77.59l-28.39,0.01l2.35,8.03l0.01,29.84h0.02v0.01l0.03-0.01h11.76v-14.31h7.51v-8.32h-7.51v-7.2
				c2.25-0.18,3.23,0.22,3.67,1.06c0.49,0.84,0.35,2.17,0.35,3.93H429.36z"/>
			<path d="M398.69,90.63V77.59l-28.4,0.01l2.35,8.03l0.01,29.84h0.02v0.01l0.03-0.01h11.76v-14.31h7.51v-8.32h-7.51v-7.2
				c2.25-0.18,3.22,0.22,3.67,1.06c0.49,0.84,0.36,2.17,0.36,3.93H398.69z"/>
			<path d="M356.45,77.59v27.14c0,0.75-0.18,2.7-2.34,2.7c-2.16,0-2.34-1.95-2.34-2.7V77.59h-14.14l2.34,8.03v17.74
				c0.09,4.02,0.4,7.2,3.62,10.03c2.79,2.43,7.12,2.83,10.52,2.83c3.41,0,7.74-0.4,10.52-2.83c3.23-2.83,3.54-6.01,3.62-10.03V77.59
				H356.45z"/>
			<path d="M442.57,98.19l1.95-12.55h0.17l1.95,12.55H442.57z M453.88,77.59h-22.31l2.36,8.03l-5.17,29.85h10.82l1.33-8.05h7.26
				l1.45,8.05h10.81L453.88,77.59z"/>
		</g>
		<g>
			<path d="M448.75,153.79v10.63c0,4.13,0.07,7.27-5.13,7.27h-1.99v-51.63h-24.48l4.06,13.9v51.65h45.51v-31.82H448.75z"/>
			<polygon points="393.8,133.95 389.75,120.06 414.23,120.06 414.23,185.6 393.8,185.6 			"/>
			<path d="M493.21,171.76h1.61c4.44,0,5.81-1.61,5.81-6.35v-24.71c0-4.74-1.37-6.73-5.81-6.73h-1.61V171.76z M498.48,120.05
				c5.59,0,12.01,0.08,16.68,3.67c5.35,4.21,5.89,10.17,5.89,16.44v24.55c0,6.43-0.31,11.4-5.28,16.07
				c-4.66,4.43-10.48,4.81-16.68,4.81h-26.31v-51.65l-4.06-13.9H498.48z"/>
			<polygon points="365.74,120.05 361.33,153.79 361.18,153.79 356.73,120.05 342.38,120.05 337.93,153.79 337.78,153.79 
				333.37,120.05 303.73,120.05 314.4,133.95 323.86,185.61 343.13,185.61 349.48,162.87 349.63,162.87 355.98,185.61 
				375.25,185.61 387.26,120.05 			"/>
		</g>
		<g>
			<polygon points="353.14,190.19 349.63,217.07 349.5,217.07 345.96,190.19 334.53,190.19 330.98,217.07 330.86,217.07 
				327.35,190.19 303.73,190.19 312.23,201.27 319.77,242.42 335.13,242.42 340.18,224.31 340.3,224.31 345.36,242.42 
				360.72,242.42 370.29,190.19 			"/>
			<polygon points="375.25,201.26 372.02,190.19 391.51,190.19 391.51,242.39 375.25,242.39 			"/>
			<polygon points="421.79,213.76 421.91,213.76 421.91,190.19 435.07,190.19 435.07,242.39 419.29,242.39 409.6,218.94 
				409.48,218.94 409.48,242.39 396.82,242.39 396.82,201.26 393.58,190.19 412.71,190.19 			"/>
			<path d="M477.62,208.34h-15.65v-1.16c0-2.31,0.49-5.91-3.1-5.91c-3.05,0-3.29,2.86-3.29,5.12v21.5c0,0.55,0.24,3.41,3.29,3.41
				c3.59,0,3.1-3.59,3.1-5.97v-3.06l-3.23-11.06h18.88v26.55c-5.12,4.63-12.85,5.67-19.49,5.67c-4.69,0-10.05-0.37-13.77-3.48
				c-4.81-4.08-5.06-8.83-5.06-14.55v-19.86c0-4.63,0.55-9.13,4.33-12.31c3.77-3.23,8.95-4.08,13.77-4.08
				c7.12,0,14.49,1.65,20.22,6.03V208.34z"/>
			<path d="M504.37,206.82c0-2.33-0.06-5.55-3.22-5.55c-2.07,0-3.17,0.67-3.17,2.62c0,1.04,0.12,2.07,0.97,2.93
				c0.91,0.97,3.23,1.7,4.57,2.06c3.9,1.04,9.13,2.44,12.42,4.63c1.89,1.28,3.29,2.8,4.02,4.99c0.85,2.25,1.21,4.75,1.21,7.19v0.24
				c0,10.05-4.44,17.49-19.97,17.49c-6.64,0-13.65-1.28-18.94-5.49v-14h15.9c0,3.11-0.06,4.56,0.49,5.66c0.55,1.03,1.7,1.7,2.93,1.7
				c2.19,0,3.17-1.27,3.17-3.17c0-5.36-3.35-5.79-7.86-6.88c-9.86-2.43-15.4-4.81-15.4-16.08v-1.16c0.24-5.61,1.15-8.41,5.41-11.63
				c3.47-2.62,8.53-3.23,13.41-3.23c7.07,0,13.34,1.41,19.25,5.48v12.31h-15.17V206.82z"/>
		</g>
	</g>
</g>
</svg>
